# xmcd
#
# Track frame offsets:
#	183
#	21368
#	37665
#	53558
#	64848
#	73030
#	86518
#	93713
#	100983
#	126795
#	158600
#	187970
# Disc length: 2957 seconds
# Revision: 1
# Processed by: cddbd v1.5.2PL0 Copyright (c) Steve Scherf et al.
#
# Submitted via: libkcddb 0.31
#
DISCID=950b8b0c
DTITLE=Bohuslav Martinu - Violin Piano Sonata No. 2 H. 208 - Violin Piano Madrigal Stanzas H. 297 - Violin Piano Sonata  No. 3 H. 303
DYEAR=1900
DGENRE=Chamber Music
TTITLE0=Violin Piano Sonata No. 2 H. 208 (1931) - I. Allegro moderato
TTITLE1=Violin Piano Sonata No. 2 H. 208 (1931) - II. Larghetto
TTITLE2=Violin Piano Sonata No. 2 H. 208 (1931) - III. Poco allegretto
TTITLE3=Violin Piano Madrigal Stanzas H. 297 (1943) - I. Moderato
TTITLE4=Violin Piano Madrigal Stanzas H. 297 (1943) - II. Poco allegretto
TTITLE5=Violin Piano Madrigal Stanzas H. 297 (1943) - III. Andante moderato
TTITLE6=Violin Piano Madrigal Stanzas H. 297 (1943) - IV. Scherzando, poco allegro
TTITLE7=Violin Piano Madrigal Stanzas H. 297 (1943) - V. Poco allegro
TTITLE8=Violin Piano Sonata  No. 3 H. 303 (1944) - I. Poco Allegro
TTITLE9=Violin Piano Sonata  No. 3 H. 303 (1944) - II. Adagio
TTITLE10=Violin Piano Sonata  No. 3 H. 303 (1944) - III. Scherzo
TTITLE11=Violin Piano Sonata  No. 3 H. 303 (1944) - IV. Lento. Poco allegro. Allegro vivo
EXTD=
EXTT0=
EXTT1=
EXTT2=
EXTT3=
EXTT4=
EXTT5=
EXTT6=
EXTT7=
EXTT8=
EXTT9=
EXTT10=
EXTT11=
PLAYORDER=
